<svg width="453" height="201" viewBox="0 0 453 201" fill="none" xmlns="http://www.w3.org/2000/svg">
<path d="M423.43 127.96H435.6V130.56H431.09V142.35H427.91V130.56H423.43V127.96ZM452.05 127.96V142.35H449.25V133.63L445.97 139.95H443.92L440.6 133.73V142.35H437.76V127.96H440.26L444.94 136.88L449.62 127.96H452.05Z" fill="#592C82"/>
<mask id="mask0_10241_103211" style="mask-type:luminance" maskUnits="userSpaceOnUse" x="0" y="80" width="156" height="121">
<path d="M3.73999 122.24C-10.21 165.46 23.19 200.5 78.34 200.5C105.62 200.5 133.11 191.92 155.61 178.03C136.93 185.95 116.4 190.53 95.97 190.53C38 190.53 2.90999 153.71 17.57 108.28C20.74 98.4698 25.97 89.0598 32.81 80.3398C19.07 92.4598 8.71999 106.82 3.73999 122.24Z" fill="white"/>
</mask>
<g mask="url(#mask0_10241_103211)">
<path d="M-10.2101 80.3398H192.34L155.61 200.5H-46.9401L-10.2101 80.3398Z" fill="url(#paint0_linear_10241_103211)"/>
</g>
<path d="M183.99 148.37C162.3 160.43 135.65 168.01 109.95 168.01C61.5 168.01 34.87 141.1 50.47 107.93H50.46C55.14 97.9698 63.09 88.5998 73.23 80.3398C68.5 85.6398 64.64 91.2398 61.91 97.0398C46.31 130.22 72.95 157.12 121.4 157.12C138.09 157.12 155.17 153.92 171.06 148.37H183.99Z" fill="url(#paint1_linear_10241_103211)"/>
<path d="M316.31 50H301.51L301.44 50.34C296.99 33.32 278.57 18.65 249.58 12.06C216.59 4.55 178.71 9.51 150.94 23.05C171.35 8.84 201.25 0.5 231.05 0.5C242 0.5 252.94 1.63 263.39 4.01C296.67 11.59 316.04 29.8 316.32 50H316.31Z" fill="url(#paint2_linear_10241_103211)"/>
<path d="M102.15 74.4001C102.15 74.4001 102.2 74.3601 102.22 74.3501C102.2 74.3701 102.18 74.3901 102.16 74.4101H102.15V74.4001Z" fill="url(#paint3_linear_10241_103211)"/>
<path d="M261.02 49.14C255.04 50.26 249.69 52.57 245.27 55.97C245.25 55.99 245.22 56.01 245.2 56.02C234.08 47.22 216.87 41.91 195.36 41.91C161.47 41.91 125.89 55.07 102.22 74.35C124.58 49.33 166.86 31.04 206.81 31.04C231.4 31.04 250.35 37.97 261.02 49.14Z" fill="url(#paint4_linear_10241_103211)"/>
<path d="M421.16 85.1501C423.83 72.5701 425.9 54.3101 400.99 54.3101C376.08 54.3101 367.64 72.9301 362.07 99.1801C356.49 125.42 355.8 144.05 381.92 144.05C404.77 144.05 412.79 127.97 416.75 109.35H399.33C395.37 127.97 390.08 131.24 383.79 131.24C376.3 131.24 373.66 126.52 379.22 100.4C384.41 75.9701 388.35 67.1401 397.18 67.1401C405.04 67.1401 406.42 72.5801 403.75 85.1601H421.17H421.16V85.1501Z" fill="#592C82"/>
<path d="M228.89 115.39L228.14 118.9C224.75 134.87 230.53 144.06 250.24 144.06C269.95 144.06 281.98 135.84 285.86 117.58C288.09 107.06 286.12 100.41 274.27 94.7298L262.08 88.9298C255.38 85.7798 254.49 82.5198 255.63 77.1998C256.7 72.1298 259.82 67.1599 267.68 67.1599C274.33 67.1599 276.11 71.8798 274.38 79.9798H291.07L291.59 77.5598C295.12 60.9898 285.27 54.3398 269.8 54.3398C253.35 54.3398 241.24 62.9299 237.68 79.7399C234.62 94.1299 240.4 100.54 254.74 105.86C265.38 109.85 268.76 112.75 267.09 120.62C265.55 127.87 259.75 131.26 254.43 131.26C245.24 131.26 244.05 126.06 245.77 117.96L246.31 115.42H228.9V115.4L228.89 115.39ZM191.02 68.8298H198.4C211.7 68.8298 211.14 78.8699 206.98 98.4599C201.99 121.92 197.96 129.54 185.87 129.54H178.13L191.03 68.8298H191.02ZM157.98 142.37H185.43C208.53 142.37 217.99 128.58 224.49 97.9798C229.89 72.5798 229.06 56.0098 204.87 56.0098H176.33L157.97 142.35L157.98 142.37Z" fill="#592C82"/>
<path d="M321.05 68.82H328.43C341.73 68.82 341.18 78.86 337.01 98.45C332.02 121.91 327.98 129.53 315.9 129.53H308.16L321.06 68.82H321.05ZM288.01 142.36H315.46C338.56 142.36 348.02 128.57 354.52 97.97C359.92 72.57 359.09 56 334.9 56H306.36L288 142.34L288.01 142.36Z" fill="#592C82"/>
<path d="M365.62 157.19H371.42V178.69H383.14V183.41H365.62V157.19ZM388 161.9H379.78V157.18H402.02V161.9H393.8V183.4H388V161.9ZM405.04 157.19H410.84V178.69H422.56V183.41H405.04V157.19Z" fill="#185082"/>
<defs>
<linearGradient id="paint0_linear_10241_103211" x1="25853" y1="139.761" x2="26021.5" y2="139.761" gradientUnits="userSpaceOnUse">
<stop stop-color="#592C82"/>
<stop offset="1" stop-color="#FEFEFE"/>
</linearGradient>
<linearGradient id="paint1_linear_10241_103211" x1="41.43" y1="105.72" x2="175.25" y2="169.87" gradientUnits="userSpaceOnUse">
<stop stop-color="#FDFDFE"/>
<stop offset="0.12" stop-color="#C4D4E1"/>
<stop offset="0.24" stop-color="#92B0C7"/>
<stop offset="0.36" stop-color="#6891B1"/>
<stop offset="0.48" stop-color="#4578A0"/>
<stop offset="0.61" stop-color="#2B6492"/>
<stop offset="0.73" stop-color="#185688"/>
<stop offset="0.86" stop-color="#0C4E82"/>
<stop offset="1" stop-color="#094C81"/>
</linearGradient>
<linearGradient id="paint2_linear_10241_103211" x1="320.46" y1="40.99" x2="152.9" y2="0.369987" gradientUnits="userSpaceOnUse">
<stop stop-color="#FDFDFE"/>
<stop offset="0.12" stop-color="#C4D4E1"/>
<stop offset="0.24" stop-color="#92B0C7"/>
<stop offset="0.36" stop-color="#6891B1"/>
<stop offset="0.48" stop-color="#4578A0"/>
<stop offset="0.61" stop-color="#2B6492"/>
<stop offset="0.73" stop-color="#185688"/>
<stop offset="0.86" stop-color="#0C4E82"/>
<stop offset="1" stop-color="#094C81"/>
</linearGradient>
<linearGradient id="paint3_linear_10241_103211" x1="102.22" y1="74.3801" x2="102.15" y2="74.3801" gradientUnits="userSpaceOnUse">
<stop stop-color="#592C82"/>
<stop offset="1" stop-color="#FEFEFE"/>
</linearGradient>
<linearGradient id="paint4_linear_10241_103211" x1="263.68" y1="54.76" x2="105.41" y2="51.75" gradientUnits="userSpaceOnUse">
<stop stop-color="#592C82"/>
<stop offset="1" stop-color="#FEFEFE"/>
</linearGradient>
</defs>
</svg>
